<svg xmlns="http://www.w3.org/2000/svg" width="178" height="50" viewBox="0 0 178 50" preserveAspectRatio="xMinYMin meet"><g fill="none"><path fill="#9F9F9F" d="M168.508 33.175h-1.887V40H164V24h2.621v6.713h1.677L173.331 24h3.145l-5.871 7.72L177 40h-3.25l-5.242-6.825zM159 40h-2.504v-6.825h-6.887V40H147V24h2.609v6.937h6.887V24H159v16zm-17.84-.324c-.11-.325-.328-.865-.328-1.622C139.63 39.351 138.1 40 136.352 40c-1.528 0-2.84-.432-3.823-1.297-.983-.865-1.529-1.946-1.529-3.244 0-1.621.655-2.81 1.857-3.783 1.202-.865 2.95-1.298 5.244-1.298h2.622V29.19c0-.973-.328-1.621-.874-2.162-.546-.54-1.42-.865-2.513-.865-.983 0-1.748.216-2.403.757-.656.54-.983 1.081-.983 1.73h-2.732c0-.757.328-1.514.874-2.27.547-.757 1.311-1.298 2.295-1.73.983-.433 1.966-.649 3.168-.649 1.748 0 3.168.432 4.26 1.297.983.865 1.53 2.162 1.639 3.676v7.135c0 1.406.218 2.595.546 3.351v.217h-2.84zm-4.48-2.054c.875 0 1.64-.217 2.404-.649.765-.432 1.311-.973 1.639-1.622v-3.135h-2.076c-3.277 0-4.916.973-4.916 2.811 0 .865.328 1.514.874 1.946.546.432 1.202.649 2.076.649zm-15.133-11.844c1.969 0 3.5.666 4.703 2C127.453 29.11 128 30.888 128 33v.222a9.713 9.713 0 01-.875 4c-.547 1.222-1.422 2.111-2.406 2.778-1.094.667-2.297 1-3.719 1-2.078 0-3.828-.667-5.031-2.111-1.313-1.445-1.969-3.333-1.969-5.667v-1.444c0-3.334.656-6 1.86-7.89 1.203-1.888 3.062-3.11 5.359-3.555 1.312-.222 2.297-.555 2.734-.889.438-.333.656-.888.656-1.444h2.188c0 1.222-.219 2.222-.766 2.889-.547.667-1.422 1.222-2.625 1.444l-1.969.445c-1.64.333-2.734 1-3.609 1.889-.766.889-1.312 2.11-1.531 3.555 1.531-1.666 3.281-2.444 5.25-2.444zM121 28c-1.313 0-2.297.444-3.063 1.333-.765.89-1.203 2.111-1.203 3.667v.222c0 1.667.438 3 1.204 4 .765 1 1.859 1.445 3.171 1.445 1.313 0 2.407-.445 3.172-1.445.766-1 1.203-2.444 1.203-4.333 0-1.445-.437-2.667-1.203-3.556-.875-.889-1.86-1.333-3.281-1.333zm-33.424-4v13.762h5.582V24h2.576v13.762h5.582V24H104v16H85V24h2.576zM78.16 39.676c-.11-.325-.328-.865-.328-1.622C76.63 39.351 75.1 40 73.352 40c-1.528 0-2.84-.432-3.823-1.297-.983-.865-1.529-1.946-1.529-3.244 0-1.621.655-2.81 1.857-3.783 1.202-.865 2.95-1.298 5.244-1.298h2.622V29.19c0-.973-.328-1.621-.874-2.162-.546-.54-1.42-.865-2.513-.865-.983 0-1.748.216-2.403.757-.656.54-.983 1.081-.983 1.73h-2.732c0-.757.328-1.514.874-2.27.547-.757 1.311-1.298 2.295-1.73.983-.433 1.966-.649 3.168-.649 1.748 0 3.168.432 4.26 1.297.983.865 1.53 2.162 1.639 3.676v7.135c0 1.406.218 2.595.546 3.351v.217h-2.84zm-4.48-2.054c.875 0 1.64-.217 2.404-.649.765-.432 1.311-.973 1.639-1.622v-3.135h-2.076c-3.277 0-4.916.973-4.916 2.811 0 .865.328 1.514.874 1.946.546.432 1.202.649 2.076.649zM51 40V19h6.733c2.244 0 3.847.438 5.023 1.422 1.175.984 1.71 2.297 1.71 4.156 0 .985-.321 1.86-.855 2.625-.535.766-1.283 1.313-2.245 1.75 1.07.328 2.03.875 2.672 1.86.641.875.962 1.968.962 3.171 0 1.86-.641 3.391-1.817 4.485C62.008 39.562 60.298 40 58.16 40H51zm2.779-12.031h4.06c1.176 0 2.138-.328 2.886-.875.748-.657 1.069-1.422 1.069-2.516 0-1.203-.32-1.969-.962-2.515-.641-.547-1.71-.766-2.992-.766h-3.955v6.672h-.106zm0 2.187v7.547h4.488c1.283 0 2.244-.328 2.993-.984.748-.657 1.068-1.64 1.068-2.735 0-2.515-1.39-3.828-4.06-3.828h-4.49z"/><path fill="#AAA" d="M22.105 18.695H4.662v-3.281L22.105 6l17.53 9.414v3.281h-17.53zM41.197 43.05l-.52-2.418c-.087-.346-.348-.605-.782-.605H4.315a.833.833 0 00-.781.605l-.52 2.418c-.087.518.26.95.78.95h36.622c.52 0 .868-.432.781-.95zm-29.419-3.8V19.386h-3.21V39.25h3.21zm7.897 0V19.386h-3.21V39.25h3.21zm8.07 0V19.386h-3.21V39.25h3.21zm7.898 0V19.386h-3.124V39.25h3.124z"/></g></svg>