<svg xmlns="http://www.w3.org/2000/svg" width="50" height="49" viewBox="0 0 50 49" preserveAspectRatio="xMinYMin meet"><path fill="#AAA" d="M24.609 16.37H2.246V12.14L24.61 0l22.474 12.139v4.231H24.61zm24.477 31.405l-.668-3.118c-.111-.446-.445-.78-1.001-.78H1.8c-.445 0-.89.334-1.001.78l-.668 3.118C.021 48.443.466 49 1.134 49h46.95c.668 0 1.113-.557 1.002-1.225zm-37.717-4.9V17.261H7.253v25.614h4.116zm10.125 0V17.261h-4.117v25.614h4.117zm10.347 0V17.261h-4.117v25.614h4.117zm10.124 0V17.261H37.96v25.614h4.005z"/></svg>